<svg width="19" height="23" viewBox="0 0 19 23" fill="none" xmlns="http://www.w3.org/2000/svg">
<path d="M4.56836 6.49415C4.45911 6.38528 4.37243 6.25591 4.31328 6.11347C4.25413 5.97102 4.22369 5.81831 4.22369 5.66407C4.22369 5.50984 4.25413 5.35712 4.31328 5.21467C4.37243 5.07223 4.45911 4.94286 4.56836 4.83399L8.66992 0.73243C8.77879 0.62318 8.90816 0.536497 9.0506 0.47735C9.19305 0.418203 9.34577 0.387756 9.5 0.387756C9.65423 0.387756 9.80695 0.418203 9.9494 0.47735C10.0918 0.536497 10.2212 0.62318 10.3301 0.73243L14.4316 4.83399C14.5409 4.94286 14.6276 5.07223 14.6867 5.21467C14.7459 5.35712 14.7763 5.50984 14.7763 5.66407C14.7763 5.81831 14.7459 5.97102 14.6867 6.11347C14.6276 6.25591 14.5409 6.38528 14.4316 6.49415C14.2105 6.71242 13.9123 6.83481 13.6016 6.83481C13.2908 6.83481 12.9926 6.71242 12.7715 6.49415L10.6719 4.39454V12.5C10.6719 12.8108 10.5484 13.1089 10.3286 13.3286C10.1089 13.5484 9.8108 13.6719 9.5 13.6719C9.1892 13.6719 8.89113 13.5484 8.67136 13.3286C8.45159 13.1089 8.32812 12.8108 8.32812 12.5V4.39454L6.22852 6.49415C6.11964 6.6034 5.99028 6.69008 5.84783 6.74923C5.70539 6.80838 5.55267 6.83882 5.39844 6.83882C5.2442 6.83882 5.09148 6.80838 4.94904 6.74923C4.8066 6.69008 4.67723 6.6034 4.56836 6.49415ZM16.5312 8.59376H14.1875C13.8767 8.59376 13.5786 8.71722 13.3589 8.93699C13.1391 9.15676 13.0156 9.45483 13.0156 9.76563C13.0156 10.0764 13.1391 10.3745 13.3589 10.5943C13.5786 10.814 13.8767 10.9375 14.1875 10.9375H16.1406V19.9219H2.85938V10.9375H4.8125C5.1233 10.9375 5.42137 10.814 5.64114 10.5943C5.86091 10.3745 5.98438 10.0764 5.98438 9.76563C5.98438 9.45483 5.86091 9.15676 5.64114 8.93699C5.42137 8.71722 5.1233 8.59376 4.8125 8.59376H2.46875C1.95154 8.59632 1.45625 8.80292 1.09052 9.16865C0.724791 9.53438 0.518192 10.0297 0.515625 10.5469V20.3125C0.518192 20.8297 0.724791 21.325 1.09052 21.6907C1.45625 22.0565 1.95154 22.2631 2.46875 22.2656H16.5312C17.0485 22.2631 17.5438 22.0565 17.9095 21.6907C18.2752 21.325 18.4818 20.8297 18.4844 20.3125V10.5469C18.4818 10.0297 18.2752 9.53438 17.9095 9.16865C17.5438 8.80292 17.0485 8.59632 16.5312 8.59376Z" fill="black"/>
</svg>
