<svg width="21" height="15" viewBox="0 0 21 15" fill="none" xmlns="http://www.w3.org/2000/svg">
<path d="M6 14.25H1.5C1.18125 14.25 0.91425 14.142 0.699 13.926C0.483 13.7107 0.375 13.4438 0.375 13.125C0.375 12.8062 0.483 12.5393 0.699 12.324C0.91425 12.108 1.18125 12 1.5 12H6C6.31875 12 6.58613 12.108 6.80213 12.324C7.01738 12.5393 7.125 12.8062 7.125 13.125C7.125 13.4438 7.01738 13.7107 6.80213 13.926C6.58613 14.142 6.31875 14.25 6 14.25ZM19.5 3H1.5C1.18125 3 0.91425 2.89237 0.699 2.67712C0.483 2.46112 0.375 2.19375 0.375 1.875C0.375 1.55625 0.483 1.28888 0.699 1.07288C0.91425 0.857625 1.18125 0.75 1.5 0.75H19.5C19.8188 0.75 20.0858 0.857625 20.301 1.07288C20.517 1.28888 20.625 1.55625 20.625 1.875C20.625 2.19375 20.517 2.46112 20.301 2.67712C20.0858 2.89237 19.8188 3 19.5 3ZM12.75 8.625H1.5C1.18125 8.625 0.91425 8.517 0.699 8.301C0.483 8.08575 0.375 7.81875 0.375 7.5C0.375 7.18125 0.483 6.91387 0.699 6.69787C0.91425 6.48262 1.18125 6.375 1.5 6.375H12.75C13.0688 6.375 13.3361 6.48262 13.5521 6.69787C13.7674 6.91387 13.875 7.18125 13.875 7.5C13.875 7.81875 13.7674 8.08575 13.5521 8.301C13.3361 8.517 13.0688 8.625 12.75 8.625Z" fill="black"/>
</svg>
