<?xml version="1.0" standalone="no"?>
<!DOCTYPE svg PUBLIC "-//W3C//DTD SVG 20010904//EN"
 "http://www.w3.org/TR/2001/REC-SVG-20010904/DTD/svg10.dtd">
<svg version="1.0" xmlns="http://www.w3.org/2000/svg"
 width="79.000000pt" height="81.000000pt" viewBox="0 0 79.000000 81.000000"
 preserveAspectRatio="xMidYMid meet">

<g transform="translate(0.000000,81.000000) scale(0.100000,-0.100000)"
fill="#000000" stroke="none">
<path d="M317 676 c-172 -64 -246 -250 -161 -407 31 -56 66 -89 128 -121 58
-30 173 -31 237 -2 80 37 142 115 163 205 5 23 2 27 -19 31 -21 4 -26 1 -32
-21 -26 -111 -118 -185 -228 -185 -135 0 -247 120 -232 250 20 178 226 274
363 169 l32 -24 18 20 c18 20 18 21 -1 36 -75 56 -192 78 -268 49z"/>
<path d="M372 510 c-31 -19 -42 -40 -22 -40 13 0 13 -33 0 -46 -6 -6 -13 -40
-17 -77 l-6 -67 78 0 77 0 -7 63 c-4 34 -12 70 -17 80 -5 10 -7 30 -3 45 5 23
1 30 -23 44 -27 16 -30 16 -60 -2z m63 -60 c0 -10 -12 -16 -32 -18 -32 -3 -45
13 -26 32 13 12 58 2 58 -14z m25 -80 c0 -12 -27 -24 -77 -35 -26 -5 -33 -3
-33 9 0 9 14 19 33 25 44 13 77 13 77 1z"/>
<path d="M490 495 c-8 -9 -8 -15 -2 -15 12 0 26 19 19 26 -2 2 -10 -2 -17 -11z"/>
<path d="M493 453 c9 -2 23 -2 30 0 6 3 -1 5 -18 5 -16 0 -22 -2 -12 -5z"/>
<path d="M490 415 c7 -9 15 -13 17 -11 7 7 -7 26 -19 26 -6 0 -6 -6 2 -15z"/>
</g>
</svg>
